<?xml version="1.0" encoding="utf-8"?>
<!-- Generator: Adobe Illustrator 20.0.0, SVG Export Plug-In . SVG Version: 6.00 Build 0)  -->
<svg version="1.1" id="Layer_1" xmlns="http://www.w3.org/2000/svg" xmlns:xlink="http://www.w3.org/1999/xlink" x="0px" y="0px"
	 viewBox="0 0 375 65.9" style="enable-background:new 0 0 375 65.9;" xml:space="preserve">
<style type="text/css">
	.st0{fill:#F37021;}
	.st1{fill:#FFFFFF;}
</style>
<g id="BD" transform="translate(5018 2673)">
	<g transform="matrix(1, 0, 0, 1, -5018, -2673)">
		<path id="Path_6-2" class="st0" d="M30.5,58.5c-3.3,2.9-8.1,4.3-14,4.3H0V3.1h16.5c5.4,0,9.7,1.3,12.8,3.8
			c3.1,2.6,4.6,6.2,4.6,10.8c0,1.7-0.2,3.3-0.7,4.9c-0.5,1.3-1.1,2.6-2,3.7c-0.8,1-1.8,1.9-2.9,2.7c-1,0.7-2.1,1.3-3.3,1.7V31
			c3,0.9,5.7,2.7,7.8,5.1c1.9,2.3,2.9,5.6,2.9,10C35.6,51.6,33.9,55.7,30.5,58.5z M20.7,13c-1.5-1.4-3.5-2.2-5.5-2h-3.7v16.7h3.6
			c2.1,0.1,4.1-0.7,5.5-2.1c1.4-1.4,2-3.5,2-6.4C22.8,16.4,22.1,14.4,20.7,13z M15.1,34.9h-3.6v20h3.6c2.9,0,5.1-0.7,6.7-2.3
			s2.4-4,2.4-7.5C24.2,38.3,21.2,34.9,15.1,34.9z M63.4,61.5c-1.9-1-3.4-2.6-4.3-4.6h-0.5c-1.1,1.8-2.5,3.3-4.1,4.6
			c-1.7,1.3-3.9,2-6.1,1.9c-2.7,0.1-5.4-1-7.2-3c-1.8-2-2.8-4.9-2.8-8.6c-0.1-4,1.7-7.8,4.8-10.3c3.2-2.7,8.2-4.3,15-4.9v-4.7
			c0-3.7-1.5-5.5-4.5-5.5c-1.6,0-3.1,0.3-4.6,0.9c-2,0.7-3.9,1.7-5.7,2.8l-3.1-6.9c2.5-1.4,5.1-2.7,7.9-3.6c2.8-0.9,5.8-1.3,8.7-1.3
			c4.4,0,7.5,1,9.5,3s2.9,5.3,2.9,9.9v23.2c-0.1,1.1,0.1,2.1,0.6,3.1c0.5,0.7,1.3,1.2,2.2,1.3v4.7C68.4,63.2,65.5,62.6,63.4,61.5
			L63.4,61.5z M58.3,40.9c-3.4,0.6-5.7,1.7-7,3.4c-1.3,1.6-2,3.7-2,5.7c-0.1,1.6,0.3,3.2,1.3,4.5c0.8,1,2.1,1.6,3.4,1.5
			c0.8,0,1.6-0.2,2.3-0.6c0.9-0.6,1.6-1.3,2.1-2.2L58.3,40.9L58.3,40.9z M95.7,62.7V30.8c0-2.9-1.1-4.3-3.2-4.3
			c-1.7,0-3.4,1.3-5.1,3.7v32.4H76v-43l11.4-1.9v8.7h0.2c1.6-2.4,3.5-4.5,5.6-6.4c1.7-1.4,3.8-2.1,6-2.1c2.2-0.1,4.4,0.8,5.8,2.6
			c1.4,1.7,2,4.3,2,7.7v34.4H95.7z M112.8,62.7V1.9L124.2,0v62.7H112.8z M134.6,62.7l-9.7-22.1v-0.2l9.5-21.7h11.8l-10.3,21.6
			l10.7,22.4H134.6z"/>
	</g>
	<g transform="matrix(1, 0, 0, 1, -5018, -2673)">
		<path id="Path_7-2" class="st1" d="M370.3,56.6c-2.6,0-4.7,2.1-4.7,4.7c0,2.6,2.1,4.7,4.7,4.7c2.6,0,4.7-2.1,4.7-4.7
			C375,58.7,372.9,56.6,370.3,56.6C370.4,56.6,370.3,56.6,370.3,56.6z M370.3,65.2c-2.2,0-3.9-1.8-3.9-4c0,0,0-0.1,0-0.1
			c0-2.1,1.7-3.9,3.8-3.9c0,0,0.1,0,0.1,0c2.2,0,3.9,1.7,3.9,3.9c0,0,0,0,0,0c0.1,2.1-1.6,4-3.7,4C370.5,65.2,370.4,65.2,370.3,65.2
			z M371.3,61.1L371.3,61.1c0.6-0.2,1.1-0.7,1.1-1.4c0-1.1-0.9-1.4-1.8-1.4h-2v5.3h0.7v-2.3h1.2c0.3,0,0.6,0.1,0.7,0.3
			c0.2,0.3,0.3,0.7,0.2,1.1c0,0.3,0.1,0.7,0.2,1h0.9c-0.2-0.5-0.3-1-0.3-1.5C372,61.7,372,61.2,371.3,61.1z M370.5,60.8h-1.3v-1.7
			h1.3c0.7,0,1,0.4,1,0.9S371.3,60.8,370.5,60.8L370.5,60.8z M185.6,55.8c-3.5,4.6-8.6,6.9-15.2,6.9h-10.5V3.1h10.8
			c6.5,0,11.5,2.3,15,6.9c3.4,4.6,5.2,11.2,5.2,19.6v6.7C191,44.7,189.1,51.2,185.6,55.8L185.6,55.8z M185.7,28.9
			c0-7-1.3-12.4-3.8-16.3c-2.6-3.8-6.4-5.7-11.4-5.7h-5.3v51.9h5.5c4.5,0.2,8.7-2,11.2-5.7c2.6-3.8,3.9-9.1,3.9-16.1L185.7,28.9
			L185.7,28.9z M199,9.5V3.1h5.5v6.4H199z M199.4,62.7V19.9h4.9v42.8L199.4,62.7z M224.8,29.8c-2.5,2.7-4.5,5.7-6.1,9v23.9h-5V20.9
			l4.9-1.7v15.1h0.4c1.8-3.7,4-7.2,6.6-10.4c1.7-2.3,4.2-4,7-4.7v5.6C229.6,25.7,226.8,27.4,224.8,29.8L224.8,29.8z M239.8,42.3v1.6
			c0.1,5.1,1,9,2.6,11.7c1.4,2.6,4.1,4.2,7,4.1c1.6,0,3.2-0.4,4.7-1.2c1.6-0.9,3-2,4.1-3.4l1.8,3.1c-1.4,1.5-3.1,2.9-4.9,3.9
			c-1.9,1.1-4.1,1.6-6.3,1.5c-3.9,0.1-7.6-1.9-9.9-5.1c-2.4-3.4-3.7-8.4-3.7-14.8v-4.6c0-2.8,0.3-5.5,1-8.2c0.6-2.2,1.4-4.4,2.6-6.4
			c1-1.6,2.4-3,4-4c1.6-1,3.4-1.5,5.3-1.5c1.8,0,3.6,0.5,5.1,1.6c1.6,1.2,2.9,2.7,3.8,4.5c1.1,2.2,2,4.6,2.4,7
			c0.6,3,0.9,6.1,0.9,9.1v1L239.8,42.3z M254.9,32.5c-0.3-1.8-0.8-3.6-1.5-5.3c-0.6-1.3-1.3-2.5-2.3-3.5c-0.8-0.8-1.9-1.3-3.1-1.3
			c-1.2,0-2.4,0.4-3.4,1.2c-1.1,1-1.9,2.1-2.6,3.4c-0.8,1.7-1.3,3.4-1.6,5.2c-0.4,2.2-0.5,4.5-0.5,6.8v0.3h15.6
			C255.4,37.1,255.2,34.8,254.9,32.5L254.9,32.5z M285.9,60.5c-1.9,2.1-4.6,3.3-7.4,3.2c-1.9,0-3.7-0.4-5.3-1.4c-1.6-1-3-2.4-4-4
			c-1.2-2-2-4.1-2.6-6.3c-0.7-2.7-1-5.4-1-8.2v-4.6c0-2.7,0.3-5.4,1-8.1c0.5-2.3,1.4-4.4,2.7-6.4c1-1.7,2.4-3.1,4-4.1
			c1.6-1,3.4-1.5,5.2-1.5c1.5,0,3,0.3,4.4,1c1.2,0.6,2.3,1.4,3.2,2.4c1,1.1,1.7,2.3,2.2,3.6c0.6,1.5,1.1,3,1.5,4.6l-4.1,1.1
			c-0.5-2.3-1.4-4.6-2.7-6.6c-1-1.6-2.8-2.6-4.7-2.4c-1.2,0-2.4,0.4-3.3,1.2c-1,0.9-1.9,2-2.4,3.3c-0.8,1.6-1.3,3.3-1.6,5.1
			c-0.4,2.1-0.5,4.3-0.5,6.5v5c0,2.2,0.2,4.4,0.5,6.6c0.3,1.8,0.9,3.5,1.7,5.1c0.6,1.3,1.5,2.4,2.7,3.3c1,0.8,2.2,1.2,3.4,1.2
			c1.8,0,3.5-0.9,4.6-2.3c1.4-2,2.4-4.2,2.8-6.6l3.9,1.2C289.3,55.3,287.9,58.1,285.9,60.5L285.9,60.5z M309.5,62.7
			c-1.2,0.4-2.4,0.6-3.6,0.6c-1.9,0.1-3.7-0.6-5.1-1.8c-1.3-1.2-2-3.2-2-6.1V23.9h-6.1v-3.6h6.1V5.8l4.8-3.6v18.2h8.2V24h-8.2v30.8
			c-0.1,1.3,0.2,2.6,1.1,3.6c0.7,0.8,1.8,1.2,2.9,1.2c0.9,0,1.8-0.2,2.7-0.5c1.1-0.5,2.2-1.2,3.2-1.9V61
			C311.8,61.7,310.6,62.3,309.5,62.7z M342.5,51.2c-0.5,2.3-1.4,4.5-2.7,6.6c-1.1,1.7-2.5,3.2-4.3,4.3c-1.7,1-3.7,1.6-5.6,1.5
			c-2,0-3.9-0.5-5.6-1.5c-1.7-1.1-3.1-2.6-4.1-4.3c-1.2-2-2.1-4.3-2.7-6.6c-0.7-2.7-1-5.5-1-8.3v-3.2c0-2.8,0.3-5.6,1-8.3
			c0.5-2.3,1.4-4.5,2.7-6.6c1-1.8,2.5-3.2,4.3-4.3c1.7-1,3.7-1.6,5.6-1.5c1.9,0,3.9,0.5,5.5,1.5c1.7,1.1,3.2,2.5,4.3,4.3
			c1.2,2,2.1,4.3,2.7,6.6c0.7,2.7,1,5.5,1,8.3V43C343.4,45.7,343.1,48.5,342.5,51.2L342.5,51.2z M338.4,39.3c0-2.2-0.2-4.5-0.6-6.7
			c-0.3-1.8-0.9-3.6-1.7-5.3c-0.6-1.3-1.5-2.5-2.7-3.5c-1-0.8-2.3-1.3-3.6-1.3c-1.3,0-2.5,0.4-3.5,1.3c-1.1,1-2,2.2-2.7,3.5
			c-0.8,1.7-1.4,3.5-1.7,5.3c-0.4,2.2-0.6,4.5-0.5,6.7v3.9c0,2.2,0.2,4.5,0.6,6.7c0.3,1.8,0.9,3.6,1.7,5.3c0.6,1.3,1.5,2.5,2.7,3.5
			c1,0.8,2.3,1.3,3.6,1.3c1.3,0,2.5-0.4,3.5-1.3c1.1-1,2-2.2,2.7-3.5c0.8-1.7,1.4-3.5,1.7-5.3c0.4-2.2,0.6-4.5,0.5-6.7V39.3z
			 M361.6,29.8c-2.5,2.7-4.5,5.7-6.1,9v23.9h-4.9V20.9l4.9-1.7v15.1h0.4c1.8-3.7,4-7.2,6.6-10.4c1.7-2.3,4.2-4,7-4.7v5.6
			C366.5,25.6,363.7,27.3,361.6,29.8L361.6,29.8z"/>
	</g>
</g>
</svg>
