<?xml version="1.0" encoding="utf-8"?>
<!-- Generator: Adobe Illustrator 20.0.0, SVG Export Plug-In . SVG Version: 6.00 Build 0)  -->
<svg version="1.1" id="Layer_1" xmlns="http://www.w3.org/2000/svg" xmlns:xlink="http://www.w3.org/1999/xlink" x="0px" y="0px"
	 viewBox="0 0 375 103.5" style="enable-background:new 0 0 375 103.5;" xml:space="preserve">
<style type="text/css">
	.st0{fill:#FFFFFF;}
</style>
<path id="BR-2" class="st0" d="M42.2,38h11c2.3-0.1,4.6,0.5,6.5,1.7c1.4,1,2.1,3.1,2.1,5.5c0,1.3-0.2,2.6-0.7,3.8
	c-0.5,1-1.4,1.9-2.4,2.4c1.1,0.5,2.1,1.3,2.7,2.4c0.7,1.2,1.1,2.7,1,4.1c0,2.7-0.7,4.8-2.4,6.2c-2,1.5-4.4,2.2-6.9,2.1H41.8V38H42.2
	z M53.1,42.8H48v6.5h5.1c2.1,0,3.1-1,3.1-3.4S55.2,42.8,53.1,42.8L53.1,42.8z M53.1,54.5H48v6.9h5.1c1,0,1.9-0.2,2.7-0.7
	c0.7-0.3,1-1.4,1-2.7C56.9,55.5,55.5,54.5,53.1,54.5L53.1,54.5z M73,56.6v9.3h-5.8V37.7h11c6.5,0,9.9,3.1,9.9,9.3
	c0.2,3.3-1.4,6.4-4.1,8.2l4.1,10.6h-6.2l-3.1-9.3L73,56.6z M81.2,50.7c1.4-1.8,1.4-4.3,0-6.2c-0.8-0.7-2-1.1-3.1-1H73v8.9h5.1
	C79.3,52,80.3,51.4,81.2,50.7L81.2,50.7z M90.2,66.2L96.3,38h10.6l6.2,28.1h-5.8l-1-5.1h-9.9L96,66.2H90.2z M100.8,42.8L98,56.2h7.5
	l-2.7-13.4H100.8z M117.2,66.2V38h9.6l6.9,23h0.3V38h5.8v28.1h-9.6l-6.9-23h-0.3v23H117.2z M155.3,66.2H146V38h9.3
	c2,0,3.9,0.2,5.8,0.7c1.4,0.5,2.7,1.3,3.8,2.4c1,1.2,1.6,2.6,1.7,4.1c0.3,2,0.4,4.1,0.3,6.2c0.1,2.1,0,4.1-0.3,6.2
	c-0.4,1.6-0.9,3.1-1.7,4.5c-0.8,1.4-2.2,2.5-3.8,2.7C159.4,65.1,157.7,66.2,155.3,66.2L155.3,66.2z M161.1,54.8v-7.5
	c0-0.8-0.3-1.7-0.7-2.4c-0.4-0.7-1-1.3-1.7-1.7c-1.1-0.3-2.3-0.4-3.4-0.3h-3.8V61h3.8c1.7,0.1,3.3-0.5,4.5-1.7
	C160.4,58.6,161.1,57.2,161.1,54.8L161.1,54.8z M191.3,63.1c-1.7,2.4-4.8,3.4-8.9,3.4s-7.2-1-8.9-3.4s-2.7-5.8-2.7-11
	c0-4.8,1-8.6,2.7-11s4.8-3.8,8.9-3.8s7.2,1.4,8.9,3.8s2.7,6.2,2.7,11C194,57.2,193,60.7,191.3,63.1L191.3,63.1z M177.9,59.3
	c0.7,1.4,2.4,2.1,4.5,2.1s3.8-0.7,4.5-2.1c1-2.3,1.5-4.7,1.4-7.2c0-3.4-0.3-5.8-1.4-7.5c-0.9-1.6-2.6-2.5-4.5-2.4
	c-2.1,0-3.8,0.7-4.5,2.4c-0.9,2.4-1.4,5-1.4,7.5C176.4,54.6,176.9,57,177.9,59.3z M198.8,66.2V38h9.6l6.9,23h0.3V38h5.8v28.1h-9.3
	l-6.9-23H205v23H198.8z M242,56.6v9.3h-5.5V37.7h11c6.5,0,9.9,3.1,9.9,9.3c0.2,3.3-1.4,6.4-4.1,8.2l4.1,10.6h-6.2l-3.1-9.3L242,56.6
	z M250.2,50.7c1.4-1.8,1.4-4.3,0-6.2c-0.8-0.7-2-1.1-3.1-1H242v8.9h5.1C248.3,52.1,249.3,51.5,250.2,50.7L250.2,50.7z M261.9,66.2
	V38h5.8v28.1L261.9,66.2z M289.6,66.2h-15.8V38h5.8v23H290v5.1L289.6,66.2z M293.1,66.2V38h18.2v4.8h-12.3v6.5h9.9v4.8h-9.9V61h12.3
	v4.8h-18.2L293.1,66.2z M327,66.2h-5.8V54.8L312.6,38h6.2l5.1,11.3l5.1-11.3h6.2L327,54.8L327,66.2z M364.7,10.3v83H10.3v-83
	L364.7,10.3 M375,0H0v103.5h375V0z"/>
</svg>
