<?xml version="1.0" encoding="utf-8"?>
<!-- Generator: Adobe Illustrator 20.0.0, SVG Export Plug-In . SVG Version: 6.00 Build 0)  -->
<svg version="1.1" id="Layer_1" xmlns="http://www.w3.org/2000/svg" xmlns:xlink="http://www.w3.org/1999/xlink" x="0px" y="0px"
	 viewBox="0 0 32 23" style="enable-background:new 0 0 32 23;" xml:space="preserve">
<path d="M17.1,0v0.2l-5,22L11.8,23h3.1v-0.2l5-22L20.1,0C20.2,0,17.1,0,17.1,0z M10,3L9.6,3.3l-9,7L0,10.8v1.4l0.6,0.5l9,7L10,20
	v-3.8l-6.1-4.7L10,6.8V3L10,3z M22,3v3.8l6.1,4.7L22,16.2V20l0.4-0.3l9-7l0.6-0.5v-1.4l-0.6-0.5l-9-7L22,3L22,3z"/>
</svg>
