<svg xmlns="http://www.w3.org/2000/svg" viewBox="0 0 149.99 23.15">
  <rect y="10.4" width="21.55" height="2.34" style="fill: #66AF68;" />
  <path style="fill: #fff" d="M142.11,23.15c4.55,0,7.88-3.47,7.88-8.41C150,10,146.8,7,142.16,7s-7.85,3.47-7.85,8.41c0,4.7,3.15,7.76,7.79,7.76m.15-1.14c-2.13,0-3-3.21-3-7.76,0-3.76.79-6.13,2.74-6.13,2.13,0,3,3.21,3,7.76,0,3.77-.79,6.13-2.74,6.13M130,0h-.76l-5.6,1.37V2.1l1.69.88V20.61c0,1-.47,1.11-1.75,1.2v1.05h8.17V21.8c-1.28-.09-1.75-.23-1.75-1.2Zm-10.6,0h-.76l-5.6,1.37V2.1l1.69.88V20.61c0,1-.47,1.11-1.75,1.2v1.05h8.17V21.8c-1.29-.09-1.75-.23-1.75-1.2ZM104,8.11c1.72,0,2.36,1.81,2.36,4.58h-5.25c.17-2.68,1.11-4.58,2.89-4.58M104.37,7c-4.12,0-7.5,3.36-7.5,8.46,0,4.7,3,7.71,7.3,7.71A6.27,6.27,0,0,0,110.64,18l-.5-.29A5,5,0,0,1,105.77,20c-2.74,0-4.76-2.28-4.67-6.1h9.43v-.67c0-3.62-2.1-6.25-6.16-6.25M90.5,3.39h-1a13,13,0,0,1-5.46,4.52v.82H85.8v9.78c0,3.36,1.81,4.64,4.32,4.64a5.36,5.36,0,0,0,4.79-2.68l-.41-.58a3.44,3.44,0,0,1-2.13.79c-1.25,0-1.87-.67-1.87-2.28V8.73h3.62V7.27H90.5ZM75.44,23.15c3.74,0,6.16-1.87,6.16-5.11,0-3-1.87-4.23-5.17-5.37-2.1-.73-3-1.31-3-2.63a2,2,0,0,1,2.25-2c2,0,3.3,1.69,3.71,3.71h1.11V8.26A9,9,0,0,0,75.64,7c-3.39,0-5.72,1.75-5.72,4.87,0,2.8,1.69,4.12,4.87,5.17,2.16.76,3.27,1.28,3.27,2.83S76.9,22,75.44,22c-2.25,0-3.76-1.87-4.38-4.32h-1.2l.17,4a9.22,9.22,0,0,0,5.4,1.46m-16.64,0c4.55,0,7.88-3.47,7.88-8.41C66.68,10,63.5,7,58.86,7S51,10.45,51,15.38c0,4.7,3.15,7.76,7.79,7.76M58.95,22c-2.13,0-3-3.21-3-7.76,0-3.76.79-6.13,2.74-6.13,2.13,0,3,3.21,3,7.76,0,3.77-.79,6.13-2.74,6.13M40.5,2.07c-5.93,0-10.65,4.26-10.65,11.06,0,6.1,4,10,10.54,10a12.44,12.44,0,0,0,6.95-1.84l.47-5.63H46.46c-1.08,4.35-2.95,6.07-5.55,6.07-3.77,0-5.81-4.06-5.81-9.43,0-5,1.69-8.9,5.55-8.9,2.77,0,4.44,1.84,5.14,5.25H47L47,3.79A11.55,11.55,0,0,0,40.5,2.07"/>
</svg>