<svg version="1.1" xmlns="http://www.w3.org/2000/svg" xmlns:xlink="http://www.w3.org/1999/xlink" viewBox="0 0 140.7 140.6" xml:space="preserve">
  <path d="M92.4,102.1l25.3-40.9L98.6,42.1L79.5,23L38.6,48.3c-4,2.5-6.9,6.3-8.1,10.8c-9.1,33.9-22,60.9-30,75.8 c-0.4,0.8-0.6,1.6-0.5,2.4l52.7-52.7c-1.7-3.2-1.3-7.3,1.4-10c3.3-3.3,8.6-3.3,11.9,0c3.3,3.3,3.3,8.6,0,11.9 c-2.7,2.7-6.8,3.2-10,1.4L3.4,140.6c0.8,0.1,1.6,0,2.4-0.5c14.8-8,41.9-20.9,75.8-30C86.1,109,90,106.1,92.4,102.1z"/>
  <path d="M126.2,62.8L77.9,14.5c-1.7-1.7-1.7-4.5,0-6.2l7-7c1.7-1.7,4.5-1.7,6.2,0l48.3,48.3c1.7,1.7,1.7,4.5,0,6.2l-7,7 C130.7,64.5,127.9,64.5,126.2,62.8z"/>
</svg>
