<?xml version="1.0" encoding="utf-8"?>
<!-- Generator: Adobe Illustrator 20.0.0, SVG Export Plug-In . SVG Version: 6.00 Build 0)  -->
<svg version="1.1" id="Layer_1" xmlns="http://www.w3.org/2000/svg" xmlns:xlink="http://www.w3.org/1999/xlink" x="0px" y="0px"
	 viewBox="0 0 275 92.2" style="enable-background:new 0 0 275 92.2;" xml:space="preserve">
<style type="text/css">
	.st0{fill:#FFFFFF;}
	.st1{fill:#F26722;}
</style>
<path id="Path_8-2" class="st0" d="M175.2,15.6v65.8h-6V15.6H154v-5h38.4v5H175.2z M205.4,45.7c-0.3-2.2-0.9-4.4-1.9-6.4
	c-0.6-1.6-1.6-3-2.8-4.1c-1-0.9-2.3-1.5-3.7-1.4c-1.5,0-2.9,0.5-4,1.4c-1.3,1.1-2.3,2.5-3,4c-0.9,2-1.6,4.1-1.9,6.2
	c-0.4,2.7-0.6,5.4-0.6,8.1v0.3h18.6C206.1,51,205.9,48.3,205.4,45.7 M187.6,57.1V59c0.1,6,1,10.6,3,14c1.6,3,4.8,4.9,8.3,4.9
	c2,0,3.9-0.5,5.6-1.4c1.8-1,3.5-2.3,4.9-3.9l2.2,3.6c-1.6,1.9-3.6,3.4-5.8,4.5c-2.3,1.2-4.8,1.9-7.4,1.8c-4.7,0.1-9.1-2.2-11.7-6.1
	c-2.9-4-4.4-9.9-4.4-17.5v-5.4c0-3.3,0.3-6.5,1-9.7c0.6-2.7,1.6-5.2,3.1-7.5c1.2-2,2.8-3.6,4.8-4.9c1.9-1.1,4-1.7,6.2-1.8
	c2.2,0,4.3,0.6,6.1,1.9c1.9,1.3,3.5,3.2,4.5,5.3c1.3,2.6,2.3,5.4,2.9,8.3c0.7,3.6,1,7.2,1,10.9v1.1L187.6,57.1L187.6,57.1z
	 M238.3,78.6c-2.3,2.5-5.5,3.8-8.9,3.7c-2.2,0-4.4-0.5-6.3-1.7c-1.9-1.2-3.6-2.8-4.8-4.8c-1.4-2.3-2.5-4.8-3-7.4
	c-0.7-3.2-1.1-6.4-1-9.7v-5.4c0-3.2,0.3-6.5,1-9.6c0.6-2.7,1.7-5.2,3.1-7.5c1.2-2,2.8-3.7,4.8-5c1.9-1.1,4-1.7,6.2-1.8
	c1.8-0.1,3.6,0.3,5.2,1c1.5,0.7,2.8,1.7,3.8,2.9c1.1,1.3,2.1,2.7,2.7,4.3c0.7,1.8,1.3,3.6,1.9,5.5l-5,1.2c-0.6-2.7-1.6-5.4-3.1-7.8
	c-1.2-1.9-3.3-3.1-5.6-2.9c-1.4,0-2.8,0.5-3.9,1.4c-1.3,1.1-2.3,2.4-3,3.9c-0.9,1.9-1.6,3.9-1.9,6c-0.4,2.6-0.6,5.2-0.6,7.8v5.9
	c0,2.6,0.2,5.2,0.7,7.8c0.4,2.1,1,4.1,2,6c0.7,1.5,1.8,2.9,3.1,3.9c1.1,0.9,2.6,1.4,4,1.4c2.1,0,4.1-1,5.4-2.8
	c1.7-2.3,2.8-5,3.3-7.8l4.6,1.3C242.4,72.5,240.7,75.8,238.3,78.6 M269.1,81.4V41.6c0-4.5-1.7-6.9-5.1-6.9c-2.2,0.1-4.2,1-5.7,2.6
	c-2.4,2.2-4.4,4.9-5.9,7.8v36.4h-5.8V8.8l5.8-2.1v33.9h0.4c1.8-2.8,3.9-5.3,6.4-7.5c2-1.9,4.6-2.9,7.3-2.9c2.4-0.2,4.8,0.8,6.3,2.8
	c1.5,2.2,2.2,4.9,2.1,7.5v40.9L269.1,81.4z"/>
<path id="Path_9-2" class="st1" d="M141.6,44.8L172.7,0h-32.6l-14.8,22.3L110.6,0H78l31.1,44.7L76.1,92.1h32.7l16.6-24.9l16.5,25
	h32.8L141.6,44.8z M95.9,81.8l25.8-37.1l-24-34.4h7.2L125.4,41l20.4-30.7h7.2L129.1,45l25.7,36.9h-7.3l-22.1-33.3l-22.1,33.3
	L95.9,81.8z"/>
<path id="Path_10-2" class="st0" d="M14,22.1v19.2h15.6v11H14v29H0V10.8h34.7v11.4H14z M38.1,29.1h13.4v52.3H38.1V29.1z M37.9,10.8
	h14v11h-14V10.8z M80.3,81.4V43.7c0-3.3-1.2-5-3.7-5c-2.1,0-4,1.4-6.1,4.4v38.3H57V30.6l13.4-2.3v10.2h0.3c1.9-2.8,4.1-5.3,6.6-7.5
	c2-1.6,4.5-2.5,7-2.5c2.7-0.1,5.2,1,6.9,3.1c1.7,2.1,2.5,5.1,2.5,9v40.8L80.3,81.4z"/>
</svg>
