<svg id="Layer_1" data-name="Layer 1" xmlns="http://www.w3.org/2000/svg" viewBox="0 0 12.14 12.59"><defs><style>.cls-1{fill:#fff;}</style></defs><title>Artboard 1</title><path class="cls-1" d="M11.89,8.84a2.18,2.18,0,0,0-.69-.69,1.77,1.77,0,0,0,.64-.68,2.25,2.25,0,0,0,.23-1.07,2.7,2.7,0,0,0-.2-1,2.62,2.62,0,0,0-.57-.86,2.69,2.69,0,0,0-.86-.58,2.78,2.78,0,0,0-1.1-.21H7.7a4.41,4.41,0,0,0-.09-.46,4.45,4.45,0,0,0-.43-1.06,4.33,4.33,0,0,0-2.6-2A4.28,4.28,0,0,0,3.41,0H0V1.61H.71V7.28H0V8.88H3.41a4.28,4.28,0,0,0,2.21-.61l.28-.19V11H5v1.61H9.45a2.76,2.76,0,0,0,1.06-.2,2.53,2.53,0,0,0,.85-.57,2.69,2.69,0,0,0,.57-.87,2.87,2.87,0,0,0,.21-1.11A1.88,1.88,0,0,0,11.89,8.84Zm-4-3.52H9.24a.58.58,0,0,1,.31.09.92.92,0,0,1,.25.24A1.25,1.25,0,0,1,10,6a1.08,1.08,0,0,1,.06.36A1,1,0,0,1,10,6.7,1.14,1.14,0,0,1,9.81,7a.85.85,0,0,1-.25.22.63.63,0,0,1-.31.08H7.85Zm-2.33.22a3,3,0,0,1-.49.9,2.34,2.34,0,0,1-.73.61,1.89,1.89,0,0,1-.9.22H2.65V1.61H3.4a1.93,1.93,0,0,1,.9.22,2.29,2.29,0,0,1,.73.6,3,3,0,0,1,.49.9A3.31,3.31,0,0,1,5.7,4.43,3.35,3.35,0,0,1,5.52,5.55Zm4.56,4.79a1.17,1.17,0,0,1-.17.33.88.88,0,0,1-.26.23.62.62,0,0,1-.32.09H7.85V8.92H9.33A.66.66,0,0,1,9.64,9a.84.84,0,0,1,.26.22,1.07,1.07,0,0,1,.18.32,1.21,1.21,0,0,1,.06.4A1.23,1.23,0,0,1,10.08,10.33Z"/></svg>