<?xml version="1.0" encoding="utf-8"?>
<!-- Generator: Adobe Illustrator 20.0.0, SVG Export Plug-In . SVG Version: 6.00 Build 0)  -->
<svg version="1.1" id="Layer_1" xmlns="http://www.w3.org/2000/svg" xmlns:xlink="http://www.w3.org/1999/xlink" x="0px" y="0px"
	 viewBox="0 0 400 87.5" style="enable-background:new 0 0 400 87.5;" xml:space="preserve">
<style type="text/css">
	.st0{fill:#ED4C06;}
	.st1{fill:#FFFFFF;}
</style>
<path id="Path_11-2" class="st0" d="M80.8,25.9c-1.8,0-3.5-0.7-4.7-2L63.6,11.5C61,8.9,61,4.6,63.6,2s6.9-2.6,9.5,0c0,0,0,0,0,0
	l12.5,12.5c2.6,2.6,2.6,6.9,0,9.5c0,0,0,0,0,0C84.3,25.2,82.6,25.9,80.8,25.9z M43.3,74.2c2.6-2.6,2.6-6.9,0-9.5c0,0,0,0,0,0
	L22.8,44.2c-2.7-2.6-6.9-2.5-9.5,0.1c-2.5,2.6-2.5,6.8,0,9.4l20.5,20.5C36.5,76.8,40.7,76.8,43.3,74.2L43.3,74.2z M85.5,54.7
	c2.6-2.6,2.6-6.9,0-9.5c0,0,0,0,0,0L42.3,2c-2.6-2.6-6.9-2.6-9.5,0s-2.6,6.9,0,9.5l43.3,43.3c1.3,1.3,3,2,4.7,2
	C82.6,56.7,84.3,56,85.5,54.7z M85.5,85.6c2.6-2.6,2.6-6.9,0-9.5c0,0,0,0,0,0L11.5,2C8.8-0.6,4.6-0.6,2,2s-2.6,6.9,0,9.5l74.1,74.1
	C78.7,88.2,82.9,88.2,85.5,85.6L85.5,85.6z"/>
<path id="Path_12-2" class="st1" d="M149,76c-17.8,0-32.2-14.4-32.2-32.3c0-17.8,14.4-32.2,32.3-32.2c17.8,0,32.2,14.4,32.2,32.3
	C181.2,61.6,166.8,76,149,76z M149,24.9c-10.4,0-18.9,8.4-18.9,18.9s8.4,18.9,18.9,18.9c10.4,0,18.9-8.4,18.9-18.8
	C167.9,33.4,159.4,24.9,149,24.9z M326.8,73.5V14.9c0-1.4-1.1-2.5-2.5-2.5c0,0,0,0,0,0h-8.4c-1.4,0-2.5,1.1-2.5,2.5c0,0,0,0,0,0
	v58.7c0,1.4,1.1,2.5,2.5,2.5c0,0,0,0,0,0h8.4C325.7,76,326.8,74.9,326.8,73.5C326.8,73.5,326.8,73.5,326.8,73.5z M299.9,12.4h-46.7
	c-1.4,0-2.5,1.1-2.5,2.5c0,0,0,0,0,0v8.4c0,1.4,1.1,2.5,2.5,2.5c0,0,0,0,0,0h16.7v47.7c0,1.4,1.1,2.5,2.5,2.5c0,0,0,0,0,0h8.4
	c1.4,0,2.5-1.1,2.5-2.5c0,0,0,0,0,0V25.8h16.7c1.4,0,2.5-1.1,2.5-2.5c0,0,0,0,0,0v-8.4C302.4,13.5,301.3,12.4,299.9,12.4
	C299.9,12.4,299.9,12.4,299.9,12.4L299.9,12.4z M242.1,67.7c1-0.9,1.1-2.5,0.1-3.5c0,0-0.1-0.1-0.1-0.1l-5.9-5.6
	c-1.1-1-2.7-1-3.8-0.1c-3.4,2.7-7.6,4.2-11.9,4.2c-10.4,0-18.8-8.4-18.9-18.8s8.4-18.8,18.8-18.9c0.1,0,0.1,0,0.2,0
	c4.3,0,8.4,1.5,11.7,4.2c1.1,0.9,2.8,0.9,3.8-0.1l5.9-5.6c1-0.9,1.1-2.5,0.1-3.5c-0.1-0.1-0.1-0.1-0.2-0.2
	C228.8,7.9,208.4,9,196.5,22.3s-10.8,33.6,2.5,45.5C211.3,78.8,229.9,78.7,242.1,67.7L242.1,67.7z M386.1,13.9l-17.3,40.6
	l-17.2-40.6c-0.4-0.9-1.3-1.5-2.3-1.5h-9.2c-1.4,0-2.5,1.1-2.5,2.5c0,0.3,0.1,0.7,0.2,1l24.8,58.7c0.4,0.9,1.3,1.5,2.3,1.5h7.6
	c1,0,1.9-0.6,2.3-1.5l24.9-58.7c0.5-1.3,0-2.7-1.3-3.3c-0.3-0.1-0.6-0.2-1-0.2h-9.2C387.3,12.4,386.4,13,386.1,13.9z"/>
</svg>
