<svg id="Layer_1" xmlns="http://www.w3.org/2000/svg" viewBox="0 0 375 65.9"><style>.st0{fill:#f37021}.st1{fill:#fff}</style><g id="BD"><path id="Path_6-2" class="st0" d="M30.5 58.5c-3.3 2.9-8.1 4.3-14 4.3H0V3.1h16.5c5.4 0 9.7 1.3 12.8 3.8 3.1 2.6 4.6 6.2 4.6 10.8 0 1.7-.2 3.3-.7 4.9-.5 1.3-1.1 2.6-2 3.7-.8 1-1.8 1.9-2.9 2.7-1 .7-2.1 1.3-3.3 1.7v.3c3 .9 5.7 2.7 7.8 5.1 1.9 2.3 2.9 5.6 2.9 10-.1 5.5-1.8 9.6-5.2 12.4zM20.7 13c-1.5-1.4-3.5-2.2-5.5-2h-3.7v16.7h3.6c2.1.1 4.1-.7 5.5-2.1 1.4-1.4 2-3.5 2-6.4.2-2.8-.5-4.8-1.9-6.2zm-5.6 21.9h-3.6v20h3.6c2.9 0 5.1-.7 6.7-2.3s2.4-4 2.4-7.5c0-6.8-3-10.2-9.1-10.2zm48.3 26.6c-1.9-1-3.4-2.6-4.3-4.6h-.5c-1.1 1.8-2.5 3.3-4.1 4.6-1.7 1.3-3.9 2-6.1 1.9-2.7.1-5.4-1-7.2-3-1.8-2-2.8-4.9-2.8-8.6-.1-4 1.7-7.8 4.8-10.3 3.2-2.7 8.2-4.3 15-4.9v-4.7c0-3.7-1.5-5.5-4.5-5.5-1.6 0-3.1.3-4.6.9-2 .7-3.9 1.7-5.7 2.8l-3.1-6.9c2.5-1.4 5.1-2.7 7.9-3.6 2.8-.9 5.8-1.3 8.7-1.3 4.4 0 7.5 1 9.5 3s2.9 5.3 2.9 9.9v23.2c-.1 1.1.1 2.1.6 3.1.5.7 1.3 1.2 2.2 1.3v4.7c-3.7-.3-6.6-.9-8.7-2zm-5.1-20.6c-3.4.6-5.7 1.7-7 3.4-1.3 1.6-2 3.7-2 5.7-.1 1.6.3 3.2 1.3 4.5.8 1 2.1 1.6 3.4 1.5.8 0 1.6-.2 2.3-.6.9-.6 1.6-1.3 2.1-2.2l-.1-12.3zm37.4 21.8V30.8c0-2.9-1.1-4.3-3.2-4.3-1.7 0-3.4 1.3-5.1 3.7v32.4H76v-43l11.4-1.9v8.7h.2c1.6-2.4 3.5-4.5 5.6-6.4 1.7-1.4 3.8-2.1 6-2.1 2.2-.1 4.4.8 5.8 2.6 1.4 1.7 2 4.3 2 7.7v34.4H95.7zm17.1 0V1.9L124.2 0v62.7h-11.4zm21.8 0l-9.7-22.1v-.2l9.5-21.7h11.8l-10.3 21.6 10.7 22.4h-12z"/><path id="Path_7-2" class="st1" d="M370.3 56.6c-2.6 0-4.7 2.1-4.7 4.7s2.1 4.7 4.7 4.7 4.7-2.1 4.7-4.7-2.1-4.7-4.7-4.7c.1 0 0 0 0 0zm0 8.6c-2.2 0-3.9-1.8-3.9-4v-.1c0-2.1 1.7-3.9 3.8-3.9h.1c2.2 0 3.9 1.7 3.9 3.9.1 2.1-1.6 4-3.7 4 0 .1-.1.1-.2.1zm1-4.1c.6-.2 1.1-.7 1.1-1.4 0-1.1-.9-1.4-1.8-1.4h-2v5.3h.7v-2.3h1.2c.3 0 .6.1.7.3.2.3.3.7.2 1.1 0 .3.1.7.2 1h.9c-.2-.5-.3-1-.3-1.5-.2-.5-.2-1-.9-1.1zm-.8-.3h-1.3v-1.7h1.3c.7 0 1 .4 1 .9s-.2.8-1 .8zm-184.9-5c-3.5 4.6-8.6 6.9-15.2 6.9h-10.5V3.1h10.8c6.5 0 11.5 2.3 15 6.9 3.4 4.6 5.2 11.2 5.2 19.6v6.7c.1 8.4-1.8 14.9-5.3 19.5zm.1-26.9c0-7-1.3-12.4-3.8-16.3-2.6-3.8-6.4-5.7-11.4-5.7h-5.3v51.9h5.5c4.5.2 8.7-2 11.2-5.7 2.6-3.8 3.9-9.1 3.9-16.1l-.1-8.1zM199 9.5V3.1h5.5v6.4H199zm.4 53.2V19.9h4.9v42.8h-4.9zm25.4-32.9c-2.5 2.7-4.5 5.7-6.1 9v23.9h-5V20.9l4.9-1.7v15.1h.4c1.8-3.7 4-7.2 6.6-10.4 1.7-2.3 4.2-4 7-4.7v5.6c-3 .9-5.8 2.6-7.8 5zm15 12.5v1.6c.1 5.1 1 9 2.6 11.7 1.4 2.6 4.1 4.2 7 4.1 1.6 0 3.2-.4 4.7-1.2 1.6-.9 3-2 4.1-3.4l1.8 3.1c-1.4 1.5-3.1 2.9-4.9 3.9-1.9 1.1-4.1 1.6-6.3 1.5-3.9.1-7.6-1.9-9.9-5.1-2.4-3.4-3.7-8.4-3.7-14.8v-4.6c0-2.8.3-5.5 1-8.2.6-2.2 1.4-4.4 2.6-6.4 1-1.6 2.4-3 4-4s3.4-1.5 5.3-1.5c1.8 0 3.6.5 5.1 1.6 1.6 1.2 2.9 2.7 3.8 4.5 1.1 2.2 2 4.6 2.4 7 .6 3 .9 6.1.9 9.1v1l-20.5.1zm15.1-9.8c-.3-1.8-.8-3.6-1.5-5.3-.6-1.3-1.3-2.5-2.3-3.5-.8-.8-1.9-1.3-3.1-1.3-1.2 0-2.4.4-3.4 1.2-1.1 1-1.9 2.1-2.6 3.4-.8 1.7-1.3 3.4-1.6 5.2-.4 2.2-.5 4.5-.5 6.8v.3h15.6c-.1-2.2-.3-4.5-.6-6.8zm31 28c-1.9 2.1-4.6 3.3-7.4 3.2-1.9 0-3.7-.4-5.3-1.4-1.6-1-3-2.4-4-4-1.2-2-2-4.1-2.6-6.3-.7-2.7-1-5.4-1-8.2v-4.6c0-2.7.3-5.4 1-8.1.5-2.3 1.4-4.4 2.7-6.4 1-1.7 2.4-3.1 4-4.1 1.6-1 3.4-1.5 5.2-1.5 1.5 0 3 .3 4.4 1 1.2.6 2.3 1.4 3.2 2.4 1 1.1 1.7 2.3 2.2 3.6.6 1.5 1.1 3 1.5 4.6l-4.1 1.1c-.5-2.3-1.4-4.6-2.7-6.6-1-1.6-2.8-2.6-4.7-2.4-1.2 0-2.4.4-3.3 1.2-1 .9-1.9 2-2.4 3.3-.8 1.6-1.3 3.3-1.6 5.1-.4 2.1-.5 4.3-.5 6.5v5c0 2.2.2 4.4.5 6.6.3 1.8.9 3.5 1.7 5.1.6 1.3 1.5 2.4 2.7 3.3 1 .8 2.2 1.2 3.4 1.2 1.8 0 3.5-.9 4.6-2.3 1.4-2 2.4-4.2 2.8-6.6l3.9 1.2c-.8 2.9-2.2 5.7-4.2 8.1zm23.6 2.2c-1.2.4-2.4.6-3.6.6-1.9.1-3.7-.6-5.1-1.8-1.3-1.2-2-3.2-2-6.1V23.9h-6.1v-3.6h6.1V5.8l4.8-3.6v18.2h8.2V24h-8.2v30.8c-.1 1.3.2 2.6 1.1 3.6.7.8 1.8 1.2 2.9 1.2.9 0 1.8-.2 2.7-.5 1.1-.5 2.2-1.2 3.2-1.9V61c-1.7.7-2.9 1.3-4 1.7zm33-11.5c-.5 2.3-1.4 4.5-2.7 6.6-1.1 1.7-2.5 3.2-4.3 4.3-1.7 1-3.7 1.6-5.6 1.5-2 0-3.9-.5-5.6-1.5-1.7-1.1-3.1-2.6-4.1-4.3-1.2-2-2.1-4.3-2.7-6.6-.7-2.7-1-5.5-1-8.3v-3.2c0-2.8.3-5.6 1-8.3.5-2.3 1.4-4.5 2.7-6.6 1-1.8 2.5-3.2 4.3-4.3 1.7-1 3.7-1.6 5.6-1.5 1.9 0 3.9.5 5.5 1.5 1.7 1.1 3.2 2.5 4.3 4.3 1.2 2 2.1 4.3 2.7 6.6.7 2.7 1 5.5 1 8.3V43c-.2 2.7-.5 5.5-1.1 8.2zm-4.1-11.9c0-2.2-.2-4.5-.6-6.7-.3-1.8-.9-3.6-1.7-5.3-.6-1.3-1.5-2.5-2.7-3.5-1-.8-2.3-1.3-3.6-1.3-1.3 0-2.5.4-3.5 1.3-1.1 1-2 2.2-2.7 3.5-.8 1.7-1.4 3.5-1.7 5.3-.4 2.2-.6 4.5-.5 6.7v3.9c0 2.2.2 4.5.6 6.7.3 1.8.9 3.6 1.7 5.3.6 1.3 1.5 2.5 2.7 3.5 1 .8 2.3 1.3 3.6 1.3 1.3 0 2.5-.4 3.5-1.3 1.1-1 2-2.2 2.7-3.5.8-1.7 1.4-3.5 1.7-5.3.4-2.2.6-4.5.5-6.7v-3.9zm23.2-9.5c-2.5 2.7-4.5 5.7-6.1 9v23.9h-4.9V20.9l4.9-1.7v15.1h.4c1.8-3.7 4-7.2 6.6-10.4 1.7-2.3 4.2-4 7-4.7v5.6c-3 .8-5.8 2.5-7.9 5z"/></g></svg>