<svg id="Layer_1" xmlns="http://www.w3.org/2000/svg" viewBox="0 0 375 103.5"><style>.st0{fill:#fff}</style><path id="BR-2" class="st0" d="M42.2 38h11c2.3-.1 4.6.5 6.5 1.7 1.4 1 2.1 3.1 2.1 5.5 0 1.3-.2 2.6-.7 3.8-.5 1-1.4 1.9-2.4 2.4 1.1.5 2.1 1.3 2.7 2.4.7 1.2 1.1 2.7 1 4.1 0 2.7-.7 4.8-2.4 6.2-2 1.5-4.4 2.2-6.9 2.1H41.8V38h.4zm10.9 4.8H48v6.5h5.1c2.1 0 3.1-1 3.1-3.4s-1-3.1-3.1-3.1zm0 11.7H48v6.9h5.1c1 0 1.9-.2 2.7-.7.7-.3 1-1.4 1-2.7.1-2.5-1.3-3.5-3.7-3.5zM73 56.6v9.3h-5.8V37.7h11c6.5 0 9.9 3.1 9.9 9.3.2 3.3-1.4 6.4-4.1 8.2l4.1 10.6h-6.2l-3.1-9.3-5.8.1zm8.2-5.9c1.4-1.8 1.4-4.3 0-6.2-.8-.7-2-1.1-3.1-1H73v8.9h5.1c1.2-.4 2.2-1 3.1-1.7zm9 15.5L96.3 38h10.6l6.2 28.1h-5.8l-1-5.1h-9.9l-.4 5.2h-5.8zm10.6-23.4L98 56.2h7.5l-2.7-13.4h-2zm16.4 23.4V38h9.6l6.9 23h.3V38h5.8v28.1h-9.6l-6.9-23h-.3v23h-5.8zm38.1 0H146V38h9.3c2 0 3.9.2 5.8.7 1.4.5 2.7 1.3 3.8 2.4 1 1.2 1.6 2.6 1.7 4.1.3 2 .4 4.1.3 6.2.1 2.1 0 4.1-.3 6.2-.4 1.6-.9 3.1-1.7 4.5-.8 1.4-2.2 2.5-3.8 2.7-1.7.3-3.4 1.4-5.8 1.4zm5.8-11.4v-7.5c0-.8-.3-1.7-.7-2.4-.4-.7-1-1.3-1.7-1.7-1.1-.3-2.3-.4-3.4-.3h-3.8V61h3.8c1.7.1 3.3-.5 4.5-1.7.6-.7 1.3-2.1 1.3-4.5zm30.2 8.3c-1.7 2.4-4.8 3.4-8.9 3.4s-7.2-1-8.9-3.4-2.7-5.8-2.7-11c0-4.8 1-8.6 2.7-11s4.8-3.8 8.9-3.8 7.2 1.4 8.9 3.8 2.7 6.2 2.7 11c0 5.1-1 8.6-2.7 11zm-13.4-3.8c.7 1.4 2.4 2.1 4.5 2.1s3.8-.7 4.5-2.1c1-2.3 1.5-4.7 1.4-7.2 0-3.4-.3-5.8-1.4-7.5-.9-1.6-2.6-2.5-4.5-2.4-2.1 0-3.8.7-4.5 2.4-.9 2.4-1.4 5-1.4 7.5-.1 2.5.4 4.9 1.4 7.2zm20.9 6.9V38h9.6l6.9 23h.3V38h5.8v28.1h-9.3l-6.9-23h-.2v23h-6.2zm43.2-9.6v9.3h-5.5V37.7h11c6.5 0 9.9 3.1 9.9 9.3.2 3.3-1.4 6.4-4.1 8.2l4.1 10.6h-6.2l-3.1-9.3-6.1.1zm8.2-5.9c1.4-1.8 1.4-4.3 0-6.2-.8-.7-2-1.1-3.1-1H242v8.9h5.1c1.2-.3 2.2-.9 3.1-1.7zm11.7 15.5V38h5.8v28.1l-5.8.1zm27.7 0h-15.8V38h5.8v23H290v5.1l-.4.1zm3.5 0V38h18.2v4.8H299v6.5h9.9v4.8H299V61h12.3v4.8h-18.2v.4zm33.9 0h-5.8V54.8L312.6 38h6.2l5.1 11.3L329 38h6.2L327 54.8v11.4zm37.7-55.9v83H10.3v-83h354.4M375 0H0v103.5h375V0z"/></svg>