<svg xmlns="http://www.w3.org/2000/svg" viewBox="0 0 140.7 140.6"><path d="M92.4 102.1l25.3-40.9-19.1-19.1L79.5 23 38.6 48.3c-4 2.5-6.9 6.3-8.1 10.8-9.1 33.9-22 60.9-30 75.8-.4.8-.6 1.6-.5 2.4l52.7-52.7c-1.7-3.2-1.3-7.3 1.4-10 3.3-3.3 8.6-3.3 11.9 0 3.3 3.3 3.3 8.6 0 11.9-2.7 2.7-6.8 3.2-10 1.4L3.4 140.6c.8.1 1.6 0 2.4-.5 14.8-8 41.9-20.9 75.8-30 4.5-1.1 8.4-4 10.8-8zm33.8-39.3L77.9 14.5c-1.7-1.7-1.7-4.5 0-6.2l7-7c1.7-1.7 4.5-1.7 6.2 0l48.3 48.3c1.7 1.7 1.7 4.5 0 6.2l-7 7c-1.7 1.7-4.5 1.7-6.2 0z"/></svg>