<svg id="Layer_1" xmlns="http://www.w3.org/2000/svg" viewBox="0 0 275 92.2"><style>.st0{fill:#fff}.st1{fill:#f26722}</style><path id="Path_8-2" class="st0" d="M175.2 15.6v65.8h-6V15.6H154v-5h38.4v5h-17.2zm30.2 30.1c-.3-2.2-.9-4.4-1.9-6.4-.6-1.6-1.6-3-2.8-4.1-1-.9-2.3-1.5-3.7-1.4-1.5 0-2.9.5-4 1.4-1.3 1.1-2.3 2.5-3 4-.9 2-1.6 4.1-1.9 6.2-.4 2.7-.6 5.4-.6 8.1v.3h18.6c0-2.8-.2-5.5-.7-8.1m-17.8 11.4V59c.1 6 1 10.6 3 14 1.6 3 4.8 4.9 8.3 4.9 2 0 3.9-.5 5.6-1.4 1.8-1 3.5-2.3 4.9-3.9l2.2 3.6c-1.6 1.9-3.6 3.4-5.8 4.5-2.3 1.2-4.8 1.9-7.4 1.8-4.7.1-9.1-2.2-11.7-6.1-2.9-4-4.4-9.9-4.4-17.5v-5.4c0-3.3.3-6.5 1-9.7.6-2.7 1.6-5.2 3.1-7.5 1.2-2 2.8-3.6 4.8-4.9 1.9-1.1 4-1.7 6.2-1.8 2.2 0 4.3.6 6.1 1.9 1.9 1.3 3.5 3.2 4.5 5.3 1.3 2.6 2.3 5.4 2.9 8.3.7 3.6 1 7.2 1 10.9v1.1h-24.3zm50.7 21.5c-2.3 2.5-5.5 3.8-8.9 3.7-2.2 0-4.4-.5-6.3-1.7-1.9-1.2-3.6-2.8-4.8-4.8-1.4-2.3-2.5-4.8-3-7.4-.7-3.2-1.1-6.4-1-9.7v-5.4c0-3.2.3-6.5 1-9.6.6-2.7 1.7-5.2 3.1-7.5 1.2-2 2.8-3.7 4.8-5 1.9-1.1 4-1.7 6.2-1.8 1.8-.1 3.6.3 5.2 1 1.5.7 2.8 1.7 3.8 2.9 1.1 1.3 2.1 2.7 2.7 4.3.7 1.8 1.3 3.6 1.9 5.5l-5 1.2c-.6-2.7-1.6-5.4-3.1-7.8-1.2-1.9-3.3-3.1-5.6-2.9-1.4 0-2.8.5-3.9 1.4-1.3 1.1-2.3 2.4-3 3.9-.9 1.9-1.6 3.9-1.9 6-.4 2.6-.6 5.2-.6 7.8v5.9c0 2.6.2 5.2.7 7.8.4 2.1 1 4.1 2 6 .7 1.5 1.8 2.9 3.1 3.9 1.1.9 2.6 1.4 4 1.4 2.1 0 4.1-1 5.4-2.8 1.7-2.3 2.8-5 3.3-7.8l4.6 1.3c-.6 4.1-2.3 7.4-4.7 10.2m30.8 2.8V41.6c0-4.5-1.7-6.9-5.1-6.9-2.2.1-4.2 1-5.7 2.6-2.4 2.2-4.4 4.9-5.9 7.8v36.4h-5.8V8.8l5.8-2.1v33.9h.4c1.8-2.8 3.9-5.3 6.4-7.5 2-1.9 4.6-2.9 7.3-2.9 2.4-.2 4.8.8 6.3 2.8 1.5 2.2 2.2 4.9 2.1 7.5v40.9h-5.8z"/><path id="Path_9-2" class="st1" d="M141.6 44.8L172.7 0h-32.6l-14.8 22.3L110.6 0H78l31.1 44.7-33 47.4h32.7l16.6-24.9 16.5 25h32.8l-33.1-47.4zm-45.7 37l25.8-37.1-24-34.4h7.2L125.4 41l20.4-30.7h7.2L129.1 45l25.7 36.9h-7.3l-22.1-33.3-22.1 33.3-7.4-.1z"/><path id="Path_10-2" class="st0" d="M14 22.1v19.2h15.6v11H14v29H0V10.8h34.7v11.4H14zm24.1 7h13.4v52.3H38.1V29.1zm-.2-18.3h14v11h-14v-11zm42.4 70.6V43.7c0-3.3-1.2-5-3.7-5-2.1 0-4 1.4-6.1 4.4v38.3H57V30.6l13.4-2.3v10.2h.3c1.9-2.8 4.1-5.3 6.6-7.5 2-1.6 4.5-2.5 7-2.5 2.7-.1 5.2 1 6.9 3.1 1.7 2.1 2.5 5.1 2.5 9v40.8H80.3z"/></svg>