<svg id="Layer_1" xmlns="http://www.w3.org/2000/svg" viewBox="0 0 400 87.5"><style>.st0{fill:#ed4c06}.st1{fill:#fff}</style><path id="Path_11-2" class="st0" d="M80.8 25.9c-1.8 0-3.5-.7-4.7-2L63.6 11.5C61 8.9 61 4.6 63.6 2s6.9-2.6 9.5 0l12.5 12.5c2.6 2.6 2.6 6.9 0 9.5-1.3 1.2-3 1.9-4.8 1.9zM43.3 74.2c2.6-2.6 2.6-6.9 0-9.5L22.8 44.2c-2.7-2.6-6.9-2.5-9.5.1-2.5 2.6-2.5 6.8 0 9.4l20.5 20.5c2.7 2.6 6.9 2.6 9.5 0zm42.2-19.5c2.6-2.6 2.6-6.9 0-9.5L42.3 2c-2.6-2.6-6.9-2.6-9.5 0s-2.6 6.9 0 9.5l43.3 43.3c1.3 1.3 3 2 4.7 2 1.8-.1 3.5-.8 4.7-2.1zm0 30.9c2.6-2.6 2.6-6.9 0-9.5L11.5 2C8.8-.6 4.6-.6 2 2s-2.6 6.9 0 9.5l74.1 74.1c2.6 2.6 6.8 2.6 9.4 0z"/><path id="Path_12-2" class="st1" d="M149 76c-17.8 0-32.2-14.4-32.2-32.3 0-17.8 14.4-32.2 32.3-32.2 17.8 0 32.2 14.4 32.2 32.3C181.2 61.6 166.8 76 149 76zm0-51.1c-10.4 0-18.9 8.4-18.9 18.9s8.4 18.9 18.9 18.9c10.4 0 18.9-8.4 18.9-18.8 0-10.5-8.5-19-18.9-19zm177.8 48.6V14.9c0-1.4-1.1-2.5-2.5-2.5h-8.4c-1.4 0-2.5 1.1-2.5 2.5v58.7c0 1.4 1.1 2.5 2.5 2.5h8.4c1.4-.1 2.5-1.2 2.5-2.6zm-26.9-61.1h-46.7c-1.4 0-2.5 1.1-2.5 2.5v8.4c0 1.4 1.1 2.5 2.5 2.5h16.7v47.7c0 1.4 1.1 2.5 2.5 2.5h8.4c1.4 0 2.5-1.1 2.5-2.5V25.8H300c1.4 0 2.5-1.1 2.5-2.5v-8.4c-.1-1.4-1.2-2.5-2.6-2.5zm-57.8 55.3c1-.9 1.1-2.5.1-3.5l-.1-.1-5.9-5.6c-1.1-1-2.7-1-3.8-.1-3.4 2.7-7.6 4.2-11.9 4.2-10.4 0-18.8-8.4-18.9-18.8S210 25 220.4 24.9h.2c4.3 0 8.4 1.5 11.7 4.2 1.1.9 2.8.9 3.8-.1l5.9-5.6c1-.9 1.1-2.5.1-3.5l-.2-.2C228.8 7.9 208.4 9 196.5 22.3s-10.8 33.6 2.5 45.5c12.3 11 30.9 10.9 43.1-.1zm144-53.8l-17.3 40.6-17.2-40.6c-.4-.9-1.3-1.5-2.3-1.5h-9.2c-1.4 0-2.5 1.1-2.5 2.5 0 .3.1.7.2 1l24.8 58.7c.4.9 1.3 1.5 2.3 1.5h7.6c1 0 1.9-.6 2.3-1.5l24.9-58.7c.5-1.3 0-2.7-1.3-3.3-.3-.1-.6-.2-1-.2h-9.2c-.9 0-1.8.6-2.1 1.5z"/></svg>