<svg xmlns="http://www.w3.org/2000/svg" xmlns:xlink="http://www.w3.org/1999/xlink" version="1.1" x="0px" y="0px" viewBox="0 0 150 150" style="enable-background:new 0 0 150 150;" xml:space="preserve"><path d="M97.4,106.2l25.3-40.9l-19.1-19.1L84.5,27.1L43.6,52.4c-4,2.5-6.9,6.3-8.1,10.8c-9.1,33.9-22,60.9-30,75.8  c-0.4,0.8-0.6,1.6-0.5,2.4l52.7-52.7c-1.7-3.2-1.3-7.3,1.4-10c3.3-3.3,8.6-3.3,11.9,0c3.3,3.3,3.3,8.6,0,11.9  c-2.7,2.7-6.8,3.2-10,1.4L8.4,144.7c0.8,0.1,1.6,0,2.4-0.5c14.8-8,41.9-20.9,75.8-30C91.1,113.1,95,110.2,97.4,106.2z"></path><path d="M131.2,66.9L82.9,18.6c-1.7-1.7-1.7-4.5,0-6.2l7-7c1.7-1.7,4.5-1.7,6.2,0l48.3,48.3c1.7,1.7,1.7,4.5,0,6.2l-7,7  C135.7,68.6,132.9,68.6,131.2,66.9z"></path></svg>