<?xml version="1.0" encoding="utf-8"?>
<!-- Generator: Adobe Illustrator 19.0.1, SVG Export Plug-In . SVG Version: 6.00 Build 0)  -->
<svg version="1.1" id="Layer_1" xmlns="http://www.w3.org/2000/svg" xmlns:xlink="http://www.w3.org/1999/xlink" x="0px" y="0px"
	 viewBox="57.5 33.4 35 29.5" style="enable-background:new 57.5 33.4 35 29.5;" xml:space="preserve">
		<path d="M64.4,39.2c-1.5,0-2.7,1.2-2.7,2.7c0,1.5,1.2,2.7,2.7,2.7c1.5,0,2.7-1.2,2.7-2.7C67.1,40.5,65.9,39.2,64.4,39.2z
			 M64.4,43.6c-0.9,0-1.6-0.7-1.6-1.6c0-0.9,0.7-1.6,1.6-1.6c0.9,0,1.6,0.7,1.6,1.6C66,42.8,65.3,43.6,64.4,43.6z"/>
		<path d="M73.2,39.1c0-1.5-1.2-2.7-2.7-2.7c-1.5,0-2.7,1.2-2.7,2.7c0,1.5,1.2,2.7,2.7,2.7C72,41.9,73.2,40.6,73.2,39.1z M68.9,39.1
			c0-0.9,0.7-1.6,1.6-1.6c0.9,0,1.6,0.7,1.6,1.6c0,0.9-0.7,1.6-1.6,1.6C69.6,40.7,68.9,40,68.9,39.1z"/>
		<path d="M77.1,42.6c1.5,0,2.7-1.2,2.7-2.7c0-1.5-1.2-2.7-2.7-2.7c-1.5,0-2.7,1.2-2.7,2.7C74.4,41.3,75.6,42.6,77.1,42.6z
			 M77.1,38.2c0.9,0,1.6,0.7,1.6,1.6c0,0.9-0.7,1.6-1.6,1.6c-0.9,0-1.6-0.7-1.6-1.6C75.5,38.9,76.2,38.2,77.1,38.2z"/>
		<path d="M91.9,34.1c-0.7-0.7-1.7-0.8-2.4-0.4c0,0,0,0-0.1,0l-0.2,0.1c-0.1,0-0.1,0.1-0.2,0.1l0,0c-0.5,0.5-2.5,2.3-4.8,4.5
			c-2.7-3.1-7-5.1-11.9-5.1c-8.1,0-14.7,5.6-14.7,12.4c0,1.4,0.3,2.8,0.8,4.1c0.1,0.2,0.3,0.4,0.5,0.5c0.2,0.1,0.5,0.1,0.7,0
			l0.1-0.1c0.1-0.1,0.3-0.1,0.4-0.2c0,0,0.1,0,0.1,0c0.6-0.3,1.3-0.4,1.9-0.4c1.1,0,2,0.4,2.3,1.2c0.4,0.9-0.3,2.1-1.5,2.9
			c-0.3,0.2-0.4,0.5-0.4,0.8c0,0.3,0.1,0.6,0.4,0.8c0.6,0.4,1.3,0.8,1.9,1.1l0,0c-1.7,2-1.9,5.7-1.9,5.8l0,0.6l0.6,0
			c0.4,0,4.2-0.1,6.1-2c1-1,1.5-1.9,1.8-2.7c0.3,0,0.6,0,0.9,0c8.2,0,14.8-5.6,14.8-12.4c0-1.1-0.2-2.1-0.5-3.1l5.4-5.8l0.3-0.3
			c0,0,0-0.1,0-0.1C92.7,35.7,92.5,34.7,91.9,34.1z M68.8,60.1c-1.1,1.1-3.3,1.5-4.7,1.6c0.1-1.1,0.5-3.5,1.7-4.7
			c1.6-1.6,2.9-1.7,3-1.7c0.2,0,0.4,0,0.5,0l1.4,1.4C70.5,57.3,70.2,58.8,68.8,60.1z M65,56.3c0.1-0.1,0.3-0.3,0.4-0.4
			C65.3,56,65.1,56.2,65,56.3z M65.6,55.7c0.1-0.1,0.1-0.1,0.2-0.2C65.8,55.6,65.7,55.7,65.6,55.7z M85.2,45.8
			c0,5.8-5.8,10.6-12.9,10.6c-0.2,0-0.3,0-0.5,0l0,0l-1.9-1.9l-0.1-0.1l-0.2,0c0,0-0.1,0-0.2,0c-0.2,0-0.4,0-0.6,0
			c-0.6,0-1.4,0.3-2.3,0.9c-0.5-0.2-1-0.4-1.4-0.7c1.3-1.3,1.8-2.9,1.2-4.3c-0.6-1.4-2.1-2.3-4-2.3c-0.8,0-1.6,0.2-2.4,0.4
			c-0.2-0.8-0.4-1.7-0.4-2.5c0-5.8,5.8-10.5,12.9-10.5c4.4,0,8.2,1.8,10.6,4.5c-4.2,3.9-9,8.4-9.1,8.4l-3.3,4.4
			c-0.2,0.2-0.3,0.5-0.3,0.7c0,0.3,0.1,0.6,0.3,0.8l1.3,1.3c0.2,0.2,0.5,0.3,0.8,0.3c0.3,0,0.6-0.1,0.8-0.3l4.4-3.4l7.3-7.8
			C85.1,44.8,85.2,45.3,85.2,45.8z M91.3,35.9L91.3,35.9C91.2,36,91.2,36,91.2,36l-0.1,0.1c0,0,0,0,0,0L77,51.3l-4.4,3.3l-0.1,0
			c0,0,0,0,0,0l0,0l-1.3-1.3l3.3-4.4c0.8-0.7,13.6-12.7,15.2-14.1l0.2-0.2c0.3-0.2,0.8-0.1,1.1,0.2C91.4,35.2,91.5,35.6,91.3,35.9z"
			/>
</svg>
