<?xml version="1.0" encoding="utf-8"?>
<!-- Generator: Adobe Illustrator 19.0.1, SVG Export Plug-In . SVG Version: 6.00 Build 0)  -->
<svg version="1.1" id="Layer_1" xmlns="http://www.w3.org/2000/svg" xmlns:xlink="http://www.w3.org/1999/xlink" x="0px" y="0px"
	 viewBox="-8 14 32 23" style="enable-background:new -8 14 32 23;" xml:space="preserve">
<path d="M9.1,14l0,0.2l-5,22L3.8,37h3.1l0-0.2l5-22l0.2-0.8C12.2,14,9.1,14,9.1,14z M2,17l-0.4,0.3l-9,7L-8,24.8v1.4l0.6,0.5l9,7
	L2,34v-3.8l-6.1-4.7L2,20.8V17L2,17z M14,17v3.8l6.1,4.7L14,30.2V34l0.4-0.3l9-7l0.6-0.5v-1.4l-0.6-0.5l-9-7L14,17L14,17z"/>
</svg>
