<svg version="1.1"
	 xmlns="http://www.w3.org/2000/svg" xmlns:xlink="http://www.w3.org/1999/xlink" xmlns:a="http://ns.adobe.com/AdobeSVGViewerExtensions/3.0/"
	 x="0px" y="0px" viewBox="0 0 34.1 25.6" style="enable-background:new 0 0 34.1 25.6;"
	 xml:space="preserve">
	<path fill="#444444" d="M33.3,0H0.8C0.4,0,0,0.4,0,0.8v24c0,0.4,0.4,0.8,0.8,0.8h32.5c0.4,0,0.8-0.4,0.8-0.8v-24
		C34.1,0.4,33.7,0,33.3,0z M1.6,2.3l11.1,11.5L1.6,23.3V2.3z M17,14.9L3.3,1.6h27.4L17,14.9z M14.2,14.8l2.4,1.7
		c0.1,0.1,0.3,0.2,0.4,0.2c0.2,0,0.3,0,0.4-0.2l2.4-1.7l10.9,9.3H3.4L14.2,14.8z M21.3,13.8L32.4,2.3v21L21.3,13.8z"/>
</svg>
