<svg version="1.1" id="Layer_1" xmlns="http://www.w3.org/2000/svg" xmlns:xlink="http://www.w3.org/1999/xlink" x="0px" y="0px"
	 viewBox="-21 73.5 36 36" style="enable-background:new -21 73.5 36 36;" xml:space="preserve">
	<path fill="#ffffff" d="M10.1,109.5H0.5c-0.6,0-1.1-0.5-1.1-1.1v-9.5h-4.8v9.5c0,0.6-0.5,1.1-1.1,1.1h-9.6c-0.6,0-1.1-0.5-1.1-1.1
		V93.1h-2.6c-0.4,0-0.9-0.3-1.1-0.7c-0.2-0.4-0.1-0.9,0.2-1.3l16.8-17.3c0.2-0.2,0.5-0.4,0.8-0.4c0.3,0,0.6,0.1,0.8,0.4l7.4,7.6
		c0.2-0.4,0.6-0.8,1.1-0.8h3.8c0.6,0,1.1,0.5,1.1,1.1v5.8l3.4,3.5c0.3,0.3,0.4,0.8,0.2,1.3c-0.2,0.4-0.6,0.7-1.1,0.7h-2.6v15.3
		C11.3,109,10.8,109.5,10.1,109.5z M0.9,108h8.8V91.5h3.2l-3.2-3.3v-6h-3v2.9l-9.7-10l-15.9,16.3h3.2V108H-7V97.4h7.9V108z"/>
</svg>
