<svg version="1.1"
	 xmlns="http://www.w3.org/2000/svg" xmlns:xlink="http://www.w3.org/1999/xlink" xmlns:a="http://ns.adobe.com/AdobeSVGViewerExtensions/3.0/"
	 x="0px" y="0px" viewBox="0 0 51.1 100" style="enable-background:new 0 0 51.1 100;"
	 xml:space="preserve">
<path fill="#000000" d="M51.1,8v84.6c0,4.1-3.3,7.4-7.4,7.4H8c-4.1,0-7.4-3.3-7.4-7.4V32.9H0.4c-0.2,0-0.3-0.1-0.3-0.3v-3c0-0.2,0.1-0.3,0.3-0.3
	h0.1v-5.2H0.4c-0.2,0-0.3-0.1-0.3-0.3v-3c0-0.2,0.1-0.3,0.3-0.3h0.1V16H0.1C0.1,16,0,16,0,15.9v-4.3c0-0.1,0.1-0.1,0.1-0.1h0.4V8
	c0-4.1,3.3-7.4,7.4-7.4h26.5V0.1c0-0.1,0.1-0.1,0.1-0.1h7.8c0.1,0,0.1,0.1,0.1,0.1v0.4h1.1C47.8,0.5,51.1,3.9,51.1,8z M25.8,86.3
	c-2.7,0-4.9,2.2-4.9,4.9s2.2,4.9,4.9,4.9c2.7,0,4.9-2.2,4.9-4.9S28.5,86.3,25.8,86.3z M22.6,10h7.2c0.7,0,1.2-0.3,1.2-1
	c0-0.7-0.5-1-1.2-1h-7.2c-0.7,0-1.2,0.3-1.2,1C21.4,9.7,21.9,10,22.6,10z M17.3,10.2c0.7,0,1.2-0.5,1.2-1.2s-0.5-1.2-1.2-1.2
	s-1.2,0.5-1.2,1.2S16.6,10.2,17.3,10.2z M4.4,17v66h43V17H4.4z"/>
</svg>
