<?xml version="1.0" encoding="utf-8"?>
<!-- Generator: Adobe Illustrator 19.0.1, SVG Export Plug-In . SVG Version: 6.00 Build 0)  -->
<svg version="1.1" id="Layer_1" xmlns="http://www.w3.org/2000/svg" xmlns:xlink="http://www.w3.org/1999/xlink" x="0px" y="0px"
	 viewBox="30.6 -19.1 90 87.6" style="enable-background:new 30.6 -19.1 90 87.6;" xml:space="preserve">
<g>
	<path d="M86.2,68.5c-1,0-2-0.4-2.7-1.2L77,59.9c-0.9,0-1.9,0-2.8,0l-6.6,7.4c-1.1,1.2-2.8,1.5-4.2,0.8l-6.9-3.3
		c-0.1,0-0.2-0.1-0.2-0.1l-7-3.4c-1.4-0.7-2.2-2.2-2-3.8l1.7-9.7c-0.6-0.7-1.2-1.5-1.8-2.2l-9.9-0.5c-1.6-0.1-2.9-1.2-3.3-2.8
		l-1.7-7.4c0-0.1,0-0.2-0.1-0.2l-1.7-7.5c-0.4-1.5,0.4-3.1,1.8-3.9l8.7-4.8c0.2-0.9,0.4-1.9,0.6-2.8l-5.7-8c-0.9-1.3-0.9-3,0.1-4.3
		l4.8-6.1c0,0,0.1-0.1,0.1-0.1l0,0l4.8-6c1-1.2,2.7-1.7,4.2-1.1l9.1,3.8C60-6.5,60.9-7,61.8-7.4l2.6-9.2c0.4-1.5,1.8-2.6,3.4-2.6
		h15.6c1.6,0,3,1.1,3.4,2.6l2.6,9.2c0.9,0.4,1.8,0.8,2.7,1.3l9.1-3.8c1.5-0.6,3.2-0.2,4.2,1.1l4.8,6c0,0,0.1,0.1,0.1,0.1l4.8,6.1
		c1,1.2,1,3,0.1,4.3l-5.7,8c0.2,0.9,0.5,1.8,0.6,2.8l8.7,4.7c1.4,0.8,2.1,2.4,1.8,3.9L117,42.3c-0.4,1.6-1.7,2.7-3.3,2.8l-9.9,0.5
		c-0.6,0.8-1.2,1.5-1.8,2.2l1.7,9.7c0.3,1.6-0.5,3.1-2,3.8l-7,3.4c-0.1,0-0.2,0.1-0.2,0.1l0,0l-6.9,3.3
		C87.3,68.4,86.8,68.5,86.2,68.5z M78.5,52.7c1,0,2,0.4,2.7,1.2l5.9,6.7l4.6-2.2c0.1,0,0.2-0.1,0.2-0.1l0,0l4.4-2.1l-1.5-8.8
		c-0.2-1.1,0.2-2.3,0.9-3.1c1.2-1.2,2.3-2.6,3.2-4.1c0.6-0.9,1.7-1.5,2.8-1.6l8.9-0.5l1.1-5c0,0,0-0.1,0-0.1l1.1-4.9l-7.8-4.3
		c-1-0.5-1.7-1.5-1.8-2.7c-0.2-1.7-0.6-3.4-1.1-5c-0.4-1.1-0.2-2.3,0.5-3.2l5.2-7.3l-3.1-3.9c0,0-0.1-0.1-0.1-0.1l-3.2-4l-8.2,3.4
		c-1,0.4-2.2,0.4-3.2-0.2c-1.5-0.9-3.1-1.7-4.8-2.3c-1.1-0.4-1.9-1.3-2.2-2.4L80.7-12H70.5l-2.3,8.3c-0.3,1.1-1.1,2-2.2,2.4
		c-1.7,0.6-3.3,1.4-4.8,2.3c-1,0.6-2.2,0.7-3.2,0.2l-8.2-3.4l-3.2,4c0,0-0.1,0.1-0.1,0.1l0,0l-3.1,3.9l5.2,7.3
		c0.7,0.9,0.8,2.1,0.5,3.2c-0.5,1.6-0.9,3.3-1.1,5c-0.1,1.1-0.8,2.1-1.8,2.7l-7.8,4.3l1.1,4.8c0,0.1,0,0.2,0.1,0.2l1.1,4.9l8.9,0.5
		c1.1,0.1,2.2,0.7,2.8,1.6c0.9,1.4,2,2.8,3.2,4c0.8,0.8,1.1,2,0.9,3.1l-1.5,8.8l4.4,2.1c0.1,0,0.2,0.1,0.2,0.1l4.5,2.2l5.9-6.7
		c0.8-0.9,1.9-1.3,3-1.2c1.7,0.2,3.4,0.2,5.1,0C78.3,52.7,78.4,52.7,78.5,52.7z M75.6,41.1c-8.9,0-16.2-7.3-16.2-16.2
		S66.7,8.7,75.6,8.7c8.9,0,16.2,7.3,16.2,16.2S84.5,41.1,75.6,41.1z M75.6,15.8c-5,0-9.1,4.1-9.1,9.1s4.1,9.1,9.1,9.1
		c5,0,9.1-4.1,9.1-9.1S80.6,15.8,75.6,15.8z"/>
</g>
</svg>
