<svg version="1.1" id="Layer_1" xmlns="http://www.w3.org/2000/svg" xmlns:xlink="http://www.w3.org/1999/xlink" x="0px" y="0px"
	 viewBox="208.4 118.5 307.3 263" style="enable-background:new 208.4 118.5 307.3 263;" xml:space="preserve">
	<path d="M493.7,228.6H230.3c-12.1,0-21.9,9.9-21.9,21.9l0,0c0,12.1,9.9,21.9,21.9,21.9h263.4c12.1,0,21.9-9.9,21.9-21.9l0,0
		C515.7,238.5,505.8,228.6,493.7,228.6z"/>
	<path d="M230.3,162.3h263.5c12.1,0,21.9-9.9,21.9-21.9l0,0c0-12.1-9.9-21.9-21.9-21.9H230.3c-12.1,0-21.9,9.9-21.9,21.9l0,0
		C208.3,152.4,218.2,162.3,230.3,162.3z"/>
	<path d="M493.7,337.7H230.3c-12.1,0-21.9,9.9-21.9,21.9c0,12,9.9,21.9,21.9,21.9h263.5c12.1,0,21.9-9.9,21.9-21.9
		S505.8,337.7,493.7,337.7z"/>
</svg>
