<svg version="1.1" id="Layer_1" xmlns="http://www.w3.org/2000/svg" xmlns:xlink="http://www.w3.org/1999/xlink" x="0px" y="0px"
	 viewBox="-159.1 101.1 36 45.5" style="enable-background:new -159.1 101.1 36 45.5;" xml:space="preserve">
	<path fill="#ffffff" d="M-127,101.1h-28.2c-2.1,0-3.9,1.8-3.9,3.9v37.7c0,2.1,1.8,3.9,3.9,3.9h28.2c2.1,0,3.9-1.8,3.9-3.9V105
		C-123,102.8-124.8,101.1-127,101.1z M-124.2,142.7c0,1.8-0.9,2.8-2.8,2.8h-28.2c-1.8,0-2.8-0.9-2.8-2.8V105c0-1.8,0.9-2.8,2.8-2.8
		h28.2c1.8,0,2.8,0.9,2.8,2.8L-124.2,142.7z"/>
	<path fill="#ffffff" d="M-145.1,122.7c1.3,0.2,2.8,0.2,4,0.2c2.9,0,6.3-0.2,6.9-1.8c0.2-0.5,0.1-1.2,0-1.5c-0.4-1.2-2.2-2.1-3.2-2.5
		c-0.1-0.1-0.2-0.1-0.2-0.1l-0.1-0.1c-0.5-0.2-1.4-0.5-1.5-1c-0.2-0.7,0.2-1.2,0.7-1.7c0.2-0.2,0.3-0.4,0.4-0.6
		c0.5-0.8,0.8-1.8,0.8-2.6c0.1-1.4-0.2-2.6-1-3.4c-0.7-0.7-1.6-1.1-2.7-1.1c-0.2,0-0.4,0-0.6,0.1c-1.8,0.2-3.1,1.5-3.2,3.6
		c-0.1,1.5,0.4,3,1.3,4.3c0.1,0.1,0.1,0.2,0.2,0.2c0.2,0.3,0.5,0.6,0.4,1c-0.1,0.5-0.6,0.8-1.1,1l-0.1,0.1c-0.5,0.2-1.1,0.5-1.4,0.7
		l-0.1,0.1c-1,0.6-2.1,1.2-2.4,2.2c-0.2,0.7-0.1,1.2,0.2,1.7C-147.3,122.1-146,122.5-145.1,122.7z"/>
	<path fill="#ffffff" d="M-127.5,128.3h-27.1c-0.6,0-1.1,0.5-1.1,1.1s0.5,1.1,1.1,1.1h27.1c0.6,0,1.1-0.5,1.1-1.1
		S-126.9,128.3-127.5,128.3z"/>
	<path fill="#ffffff" d="M-127.5,133.6h-27.1c-0.6,0-1.1,0.5-1.1,1.1c0,0.6,0.5,1.1,1.1,1.1h27.1c0.6,0,1.1-0.5,1.1-1.1
		C-126.4,134.1-126.9,133.6-127.5,133.6z"/>
	<path fill="#ffffff" d="M-127.5,138.9h-27.1c-0.6,0-1.1,0.5-1.1,1.1c0,0.6,0.5,1.1,1.1,1.1h27.1c0.6,0,1.1-0.5,1.1-1.1
		C-126.4,139.4-126.9,138.9-127.5,138.9z"/>
</svg>
